<?xml version="1.0" encoding="iso-8859-1"?>
<!-- Generator: Adobe Illustrator 19.0.0, SVG Export Plug-In . SVG Version: 6.00 Build 0)  -->
<svg version="1.1" id="Capa_1" xmlns="http://www.w3.org/2000/svg" xmlns:xlink="http://www.w3.org/1999/xlink" x="0px" y="0px"
	 viewBox="0 0 512.005 512.005" style="enable-background:new 0 0 512.005 512.005;" xml:space="preserve">
<g>
	<g>
		<g>
			<path d="M440.888,64.609l-181.333-64c-2.292-0.813-4.812-0.813-7.104,0l-181.333,64c-4.26,1.51-7.115,5.542-7.115,10.063v128
				c0,165.646,24.563,226.188,187.198,308.188c1.51,0.76,3.156,1.146,4.802,1.146c1.646,0,3.292-0.385,4.802-1.146
				c162.635-82,187.198-142.542,187.198-308.188v-128C448.003,70.151,445.148,66.12,440.888,64.609z M426.669,202.672
				c0,158.656-20.229,210.01-170.667,286.708C105.565,412.682,85.336,361.328,85.336,202.672V82.224l170.667-60.24l170.667,60.24
				V202.672z"/>
			<path d="M320.003,298.672h42.667c5.896,0,10.667-4.771,10.667-10.667c0-5.896-4.771-10.667-10.667-10.667h-32v-74.667
				c0-5.896-4.771-10.667-10.667-10.667s-10.667,4.771-10.667,10.667v85.333C309.336,293.901,314.107,298.672,320.003,298.672z"/>
			<path d="M170.669,213.339h21.333c5.896,0,10.667-4.771,10.667-10.667c0-5.896-4.771-10.667-10.667-10.667h-21.333
				c-17.646,0-32,14.354-32,32c0,17.646,14.354,32,32,32c5.885,0,10.667,4.781,10.667,10.667c0,5.885-4.781,10.667-10.667,10.667
				h-21.333c-5.896,0-10.667,4.771-10.667,10.667c0,5.896,4.771,10.667,10.667,10.667h21.333c17.646,0,32-14.354,32-32
				c0-17.646-14.354-32-32-32c-5.885,0-10.667-4.781-10.667-10.667C160.003,218.12,164.784,213.339,170.669,213.339z"/>
			<path d="M224.003,224.005c0,17.646,14.354,32,32,32c5.885,0,10.667,4.781,10.667,10.667c0,5.885-4.781,10.667-10.667,10.667
				h-21.333c-5.896,0-10.667,4.771-10.667,10.667c0,5.896,4.771,10.667,10.667,10.667h21.333c17.646,0,32-14.354,32-32
				c0-17.646-14.354-32-32-32c-5.885,0-10.667-4.781-10.667-10.667c0-5.885,4.781-10.667,10.667-10.667h21.333
				c5.896,0,10.667-4.771,10.667-10.667c0-5.896-4.771-10.667-10.667-10.667h-21.333
				C238.357,192.005,224.003,206.359,224.003,224.005z"/>
		</g>
	</g>
</g>
<g>
</g>
<g>
</g>
<g>
</g>
<g>
</g>
<g>
</g>
<g>
</g>
<g>
</g>
<g>
</g>
<g>
</g>
<g>
</g>
<g>
</g>
<g>
</g>
<g>
</g>
<g>
</g>
<g>
</g>
</svg>
