<svg id="Layer_1" data-name="Layer 1" xmlns="http://www.w3.org/2000/svg" viewBox="0 0 216 99.85"><defs><style>.cls-1{fill:#404141;}</style></defs><path class="cls-1" d="M78.6,31.92c-.27.23-.46.4-.66.55a25.82,25.82,0,0,0-2.85,2.58A16.64,16.64,0,0,0,72.3,39a11.09,11.09,0,0,0-1.21,6.44,10,10,0,0,0,4.42,7.31,6.56,6.56,0,0,0,2.16,1,6.13,6.13,0,0,0,3-.06,9.22,9.22,0,0,0,6.27-5,10.86,10.86,0,0,0,1.18-4.5,14.19,14.19,0,0,0-1.83-7.59,6.4,6.4,0,0,0-.42-.64A23.2,23.2,0,0,0,79.42,30a15.43,15.43,0,0,0-2.91-1.36,5.88,5.88,0,0,0-3.64-.09A10.17,10.17,0,0,0,69.66,30a16.6,16.6,0,0,0-2.35,2c-.78.78-1.52,1.58-2.29,2.36-.62.63-1.23,1.28-1.89,1.87a16.67,16.67,0,0,1-1.75,1.39,8.17,8.17,0,0,1-6.62,1.22l-.68-.16-.58-.14a1.16,1.16,0,0,0-.42.58,29,29,0,0,0-2.87,8,30.32,30.32,0,0,0-.62,5.77,29.7,29.7,0,0,0,4.54,16.63A22.59,22.59,0,0,0,60,75.81,18.06,18.06,0,0,0,67.26,79a16.89,16.89,0,0,0,10-1.07,20.25,20.25,0,0,0,7.16-5.15,25.74,25.74,0,0,0,5.45-9.52,2.77,2.77,0,0,1,1.19-1.72,24.66,24.66,0,0,0,7.78-11.33,3.31,3.31,0,0,1,.18-.53.42.42,0,0,1,.51-.26.41.41,0,0,1,.35.38,5.24,5.24,0,0,1,0,.56A49.24,49.24,0,0,1,86.53,83.85a49.11,49.11,0,0,1-25.2,14.69A50.68,50.68,0,0,1,47.72,99.8a48.7,48.7,0,0,1-23.59-7.13A49.66,49.66,0,0,1,2.59,65.84,47.19,47.19,0,0,1,.52,57.07,48.13,48.13,0,0,1,0,48.42,49.07,49.07,0,0,1,12.45,17.06,49.63,49.63,0,0,1,43.18.47,48.25,48.25,0,0,1,53.3.12,48.91,48.91,0,0,1,81.59,11.31a49.64,49.64,0,0,1,14,18.42A28.38,28.38,0,0,1,98,38.39a25.48,25.48,0,0,1-2.53,14.47A21.55,21.55,0,0,1,90.88,59a13.86,13.86,0,0,1-6.3,3.34,20,20,0,0,1-6.12.48,17.71,17.71,0,0,1-4.33-.75,14,14,0,0,1-9.85-10.76,16.86,16.86,0,0,1,.91-10.16,23.23,23.23,0,0,1,4-6.62,28.73,28.73,0,0,1,3.09-3.15c.12-.11.24-.22.37-.32a3.22,3.22,0,0,1,2.71-.6A11,11,0,0,1,78.6,31.92ZM50.42,37.55l-.79-.29a46.78,46.78,0,0,1-6.42-2.78,21.89,21.89,0,0,1-4.31-3A14.21,14.21,0,0,1,34.78,25a20.19,20.19,0,0,1-.69-3.85,15.85,15.85,0,0,1,.28-4.66A14.84,14.84,0,0,1,37.64,10a20.35,20.35,0,0,1,5.25-4.35A26.44,26.44,0,0,1,49.2,3c.18,0,.37,0,.5-.26a1.19,1.19,0,0,0-.23-.73,3.73,3.73,0,0,0-.47,0c-.58.06-1.16.11-1.74.2A20.73,20.73,0,0,0,39,5.44a18.07,18.07,0,0,0-5.71,5.86,16,16,0,0,0-2.27,6.92,19.29,19.29,0,0,0,.56,6.59,15.62,15.62,0,0,0,4.94,8.11,18,18,0,0,0,4,2.67,26.5,26.5,0,0,0,4.63,1.78,28.45,28.45,0,0,0,4.58,1,3.19,3.19,0,0,0,.42,0ZM61.86,16.69c0-.18.06-.29.07-.4a4,4,0,0,0-2.73-4,5.67,5.67,0,0,0-3-.18,4.86,4.86,0,0,0-4.09,4.42,3.29,3.29,0,0,0,0,.45,9.62,9.62,0,0,0,2.69,0v-.47A2.37,2.37,0,0,1,56,14.23a3.94,3.94,0,0,1,2.68-.55,2.65,2.65,0,0,1,2.08,1.47,8.14,8.14,0,0,1,.35,1,1.7,1.7,0,0,0,.07.34.47.47,0,0,0,.25.21A1.3,1.3,0,0,0,61.86,16.69Z"/><path class="cls-1" d="M110.38,76.65c-.16.86,0,1.7-.19,2.56a3,3,0,0,1-.4.06h-4.27a4.14,4.14,0,0,1-.45,0c0-.15,0-.29,0-.42v-32a3.71,3.71,0,0,1,0-.93c.93-.1,1.83,0,2.73,0s1.81,0,2.73,0a2.63,2.63,0,0,1,.07.87V58.92c0,.25,0,.5,0,.74.26.09.34-.1.44-.2a8.35,8.35,0,0,1,4.6-2.37A10.43,10.43,0,0,1,125,59.8a11.12,11.12,0,0,1,3.55,7.4,11.54,11.54,0,0,1-1.31,6.7A10.55,10.55,0,0,1,120,79.46a10.2,10.2,0,0,1-5.79-.34A8.41,8.41,0,0,1,111,77.07l-.41-.39ZM123,68.33c0-.32,0-.64-.07-1a3.89,3.89,0,0,0-.13-.68A6.13,6.13,0,0,0,117.65,62a6,6,0,0,0-6.2,2.78,6.4,6.4,0,0,0,8.81,8.92A6.34,6.34,0,0,0,123,68.33Z"/><path class="cls-1" d="M162.35,79.25H157a4.8,4.8,0,0,1-.08-.48c0-.17,0-.33,0-.49V58.41a1.91,1.91,0,0,1,.08-.89,44.37,44.37,0,0,1,5.41,0c.15.54,0,1.13.11,1.69.26,0,.36-.14.5-.25a8,8,0,0,1,3.19-1.68A7.82,7.82,0,0,1,176,63.23a9.77,9.77,0,0,1,.21,2.16V78.54c0,.21,0,.42,0,.65a2,2,0,0,1-.36.08H170.9c-.07,0-.14,0-.25,0a3.91,3.91,0,0,1-.07-.39c0-.2,0-.42,0-.63,0-4,0-8.06,0-12.1a5.18,5.18,0,0,0-.09-1.18A3.69,3.69,0,0,0,167.61,62a4.16,4.16,0,0,0-3,.34,3.88,3.88,0,0,0-2.18,3.42c0,.21,0,.42,0,.63v12A2.79,2.79,0,0,1,162.35,79.25Z"/><path class="cls-1" d="M197.06,57.51a50.27,50.27,0,0,1,5.49,0c0,.16.06.34.07.52V70.62a8.42,8.42,0,0,0,.07,1.12,3.33,3.33,0,0,0,2.91,3,4.89,4.89,0,0,0,2.28-.11,3.27,3.27,0,0,0,2.44-2.85,8.48,8.48,0,0,0,.08-1.33c0-4,0-8,0-12,0-.3,0-.6,0-.92a1.45,1.45,0,0,1,.36-.09c1.63,0,3.27,0,4.9,0a1.32,1.32,0,0,1,.24,0c0,.13.06.26.07.39a2,2,0,0,1,0,.35V71a9.82,9.82,0,0,1-.45,3.1A7.53,7.53,0,0,1,210.84,79a10.14,10.14,0,0,1-2.65.63,13.12,13.12,0,0,1-5.67-.5,7.56,7.56,0,0,1-5.14-5.37,9.07,9.07,0,0,1-.34-2.49c0-1.28,0-2.56,0-3.84v-9.1C197,58.06,197.05,57.81,197.06,57.51Z"/><path class="cls-1" d="M132.62,57.49a52.14,52.14,0,0,1,5.48,0,2.19,2.19,0,0,1,.05.81q0,6.2,0,12.38a7,7,0,0,0,.05,1.12,3.35,3.35,0,0,0,2.86,2.94,4.91,4.91,0,0,0,2.09,0,3.39,3.39,0,0,0,2.74-3.28c0-.32,0-.65,0-1V58.37c0-.28,0-.55,0-.87a6.75,6.75,0,0,1,1.41-.06h2.73a9.7,9.7,0,0,1,1.32,0,1.65,1.65,0,0,1,.1.78v5.46c0,2.42,0,4.85,0,7.27a10.1,10.1,0,0,1-.35,2.84,7.51,7.51,0,0,1-4.42,5,10,10,0,0,1-3,.79,12.73,12.73,0,0,1-5.93-.62,7.56,7.56,0,0,1-5-6.1,10.8,10.8,0,0,1-.14-1.6c0-4.38,0-8.77,0-13.15C132.58,57.94,132.6,57.74,132.62,57.49Z"/><path class="cls-1" d="M193.65,57.48c0,1.5,0,2.92,0,4.38-.23,0-.41.06-.58.06H190.2l-.72,0a4.39,4.39,0,0,0-.07.44c0,.21,0,.42,0,.63V78.33c0,.28,0,.56,0,.86a1.73,1.73,0,0,1-.35.08h-4.9a2.08,2.08,0,0,1-.24,0,2.32,2.32,0,0,1-.07-.38c0-.23,0-.46,0-.7V62.83a1.92,1.92,0,0,0-.09-.85,14.6,14.6,0,0,0-2.09-.06c-.67,0-1.35,0-2,0,0-.1-.1-.16-.1-.22,0-1.38,0-2.75,0-4.1.16-.2.36-.16.54-.16H183l.64,0a.62.62,0,0,0,.19-.57V50.42c0-.26,0-.51,0-.79a2.53,2.53,0,0,1,.5-.09h4.55a4,4,0,0,1,.51.08c0,2.59,0,5.14,0,7.64a.84.84,0,0,0,.66.18h2.8C193.1,57.44,193.33,57.46,193.65,57.48Z"/></svg>